#!OML:ASF Y:\EmotionMaleHayes\Project 1\Capture day 1\Session 1\Male1.ASF
:FULLY-SPECIFIED
:DEGREES
241
root 48.9091 17.2796 -2.0065 211.574 95.7492 221.061
lowerback 9.23726 3.11349 -4.27675
upperback 2.0669 3.78469 -0.169377
thorax -3.28348 1.94158 1.76327
lowerneck -25.2684 -0.126289 0.785034
upperneck 20.7097 -0.817595 1.45619
head 10.8539 -0.0962547 0.271544
rclavicle 4.74909e-015 4.96962e-016
rhumerus -23.2078 28.664 -89.1626
rradius 73.5135
rwrist -1.38593
rhand -12.1921 -22.4289
rfingers 7.12502
rthumb 13.8718 -51.9463
lclavicle 4.74909e-015 4.96962e-016
lhumerus -47.0761 -19.2185 92.2553
lradius 42.7447
lwrist 0.955737
lhand -15.1322 -19.7543
lfingers 7.12502
lthumb 11.0372 9.93553
rfemur 8.78364 0.107394 13.8578
rtibia 9.80086
rfoot -10.6456 2.62051
rtoes 11.8554
lfemur 10.5334 4.14253 -20.1559
ltibia 8.84209
lfoot -11.9047 10.5919
ltoes 7.11855
242
root 48.9132 17.2792 -2.01475 209.008 95.6367 218.207
lowerback 8.99971 3.05068 -4.07515
upperback 2.09776 3.73246 -0.159082
thorax -3.10475 1.91072 1.68213
lowerneck -25.5776 0.0028655 1.17922
upperneck 20.7449 -0.720066 1.16644
head 10.9196 -0.057274 0.117451
rclavicle 1.47225e-015 -1.59028e-015
rhumerus -23.4996 28.9018 -89.5349
rradius 72.9375
rwrist -1.31706
rhand -12.3218 -22.5642
rfingers 7.12502
rthumb 13.7469 -52.09
lclavicle 1.47225e-015 -1.59028e-015
lhumerus -46.1295 -19.1361 91.744
lradius 42.8694
lwrist 0.257893
lhand -14.6838 -20.1911
lfingers 7.12502
lthumb 11.4697 9.4751
rfemur 8.43047 0.0654716 14.2041
rtibia 9.81809
rfoot -10.5834 2.55045
rtoes 10.4701
lfemur 10.3703 4.26011 -19.815
ltibia 8.59415
lfoot -11.8048 10.5646
ltoes 6.58067
243
root 48.9078 17.3008 -2.06439 229.279 96.6704 237.807
lowerback 8.58664 2.91278 -5.90514
upperback 1.88967 3.38163 -0.956181
thorax -3.1237 1.75455 1.93275
lowerneck -25.3625 0.0175396 1.1097
upperneck 20.3336 -0.728455 1.40846
head 10.7303 -0.0408668 0.214353
rclavicle 4.60466e-016 -5.81445e-015
rhumerus -24.0298 28.8213 -89.9627
rradius 72.2685
rwrist -1.1893
rhand -12.4102 -22.7246
rfingers 7.12502
rthumb 13.6617 -52.2563
lclavicle 4.60466e-016 -5.81445e-015
lhumerus -45.3118 -19.1633 91.3676
lradius 42.9735
lwrist -0.555858
lhand -14.2551 -20.5581
lfingers 7.12502
lthumb 11.8831 9.0847
rfemur 7.6058 -1.70283 10.6767
rtibia 10.1292
rfoot -10.2617 3.86273
rtoes 11.2903
lfemur 9.37661 4.01492 -23.0972
ltibia 8.61182
lfoot -11.7706 10.4837
ltoes 6.34096
244
root 48.9188 17.2876 -2.03337 211.177 95.4489 220.12
lowerback 9.16847 3.02013 -4.16468
upperback 1.98801 3.66718 -0.284915
thorax -3.30556 1.8826 1.59748
lowerneck -25.3213 -0.0291223 1.07021
upperneck 20.3233 -0.745834 1.28532
head 10.7183 -0.0687241 0.17314
rclavicle 2.83812e-015 1.37658e-014
rhumerus -24.6446 28.6911 -90.3021
rradius 71.5073
rwrist -1.30157
rhand -12.6473 -22.8176
rfingers 7.12502
rthumb 13.4332 -52.3645
lclavicle 2.83812e-015 1.37658e-014
lhumerus -44.6073 -19.1943 91.089
lradius 43.1543
lwrist -1.54755
lhand -14.028 -20.93
lfingers 7.12502
lthumb 12.1021 8.70001
rfemur 8.23872 0.239353 14.1781
rtibia 9.754
rfoot -10.6614 2.17244
rtoes 11.1732
lfemur 10.3015 4.05868 -19.9418
ltibia 8.07599
lfoot -11.7163 10.4673
ltoes 7.19768
245
root 48.9518 17.2967 -2.04564 205.003 94.0356 214.322
lowerback 9.31485 2.64325 -2.85039
upperback 2.23389 3.30425 -0.0237131
thorax -3.05239 1.68906 1.18095
lowerneck -25.1851 -0.0614621 0.777797
upperneck 19.9813 -0.769228 1.65167
head 10.5713 -0.059833 0.348621
rclavicle -2.36884e-014 6.16232e-015
rhumerus -25.1532 28.6703 -90.5748
rradius 70.7069
rwrist -1.48388
rhand -13.1206 -22.8221
rfingers 7.12502
rthumb 12.9769 -52.3985
lclavicle -2.36884e-014 6.16232e-015
lhumerus -43.7392 -19.2777 90.7981
lradius 43.2731
lwrist -2.44095
lhand -13.9561 -21.3341
lfingers 7.12502
lthumb 12.1714 8.29177
rfemur 9.28604 0.047358 15.5961
rtibia 9.13094
rfoot -10.9191 1.44827
rtoes 12.1914
lfemur 10.9602 3.31674 -18.5795
ltibia 7.69454
lfoot -11.4429 10.0208
ltoes 7.6842
246
root 48.9417 17.2985 -2.05606 215.55 94.5829 224.532
lowerback 9.24287 2.73476 -3.85258
upperback 2.12613 3.32048 -0.332508
thorax -3.1618 1.70588 1.41898
lowerneck -25.0994 -0.0135615 0.800038
upperneck 19.8061 -0.711992 1.66822
head 10.4916 -0.0324655 0.359318
rclavicle 6.8076e-015 -1.31695e-014
rhumerus -25.8099 28.5323 -90.9884
rradius 69.9508
rwrist -1.49508
rhand -13.493 -22.9446
rfingers 7.12502
rthumb 12.6179 -52.5435
lclavicle 6.8076e-015 -1.31695e-014
lhumerus -42.9101 -19.3462 90.52
lradius 43.3656
lwrist -3.18278
lhand -13.884 -21.6888
lfingers 7.12502
lthumb 12.241 7.93296
rfemur 8.76822 -0.100137 14.3321
rtibia 9.32936
rfoot -11.017 1.67151
rtoes 14.1316
lfemur 10.6697 3.4883 -19.8094
ltibia 7.37742
lfoot -11.3004 9.94677
ltoes 8.18831
247
root 48.9605 17.2968 -2.05106 216.106 94.7725 225.014
lowerback 9.05473 2.80944 -4.23032
upperback 2.16751 3.39432 -0.374155
thorax -3.03722 1.74336 1.58759
lowerneck -25.0313 -0.00378468 0.90618
upperneck 19.7063 -0.69714 1.51473
head 10.4417 -0.0389607 0.288534
rclavicle -3.47834e-014 1.90585e-014
rhumerus -26.4554 28.2643 -91.4101
rradius 69.1779
rwrist -1.41933
rhand -13.6504 -23.1662
rfingers 7.12502
rthumb 12.4662 -52.7744
lclavicle -3.47834e-014 1.90585e-014
lhumerus -42.1203 -19.312 90.2349
lradius 43.5266
lwrist -3.82569
lhand -13.8606 -21.8948
lfingers 7.12502
lthumb 12.2636 7.72561
rfemur 8.83534 0.337485 14.3124
rtibia 9.15136
rfoot -11.1775 1.35033
rtoes 15.1449
lfemur 11.0009 3.62868 -19.9157
ltibia 6.67346
lfoot -11.0759 9.96049
ltoes 8.58911
248
root 48.9695 17.2963 -2.06176 220.489 94.7774 229.169
lowerback 8.81618 2.75234 -4.49818
upperback 2.15656 3.3026 -0.511669
thorax -2.91728 1.69772 1.61703
lowerneck -25.0423 0.00839224 0.940388
upperneck 19.6248 -0.69265 1.51496
head 10.4139 -0.0352983 0.283464
rclavicle -6.16698e-015 2.11892e-014
rhumerus -27.013 28.0142 -91.7709
rradius 68.3083
rwrist -1.31818
rhand -13.6337 -23.5101
rfingers 7.12502
rthumb 12.4823 -53.1173
lclavicle -6.16698e-015 2.11892e-014
lhumerus -41.3215 -19.32 89.9464
lradius 43.6803
lwrist -4.2753
lhand -13.9479 -22.016
lfingers 7.12502
lthumb 12.1793 7.60943
rfemur 8.68396 -0.0533722 13.841
rtibia 9.10517
rfoot -11.1717 1.51679
rtoes 15.5265
lfemur 10.9755 3.60737 -20.3535
ltibia 6.21296
lfoot -10.658 9.90533
ltoes 6.83331
249
root 48.9801 17.2963 -2.06448 222.632 94.8287 231.285
lowerback 8.56374 2.73875 -4.77991
upperback 2.36433 3.28458 -0.58093
thorax -2.57122 1.68358 1.72279
lowerneck -25.3709 -0.108263 0.740612
upperneck 19.6604 -0.843 1.7359
head 10.488 -0.0896258 0.37209
rclavicle -4.30515e-014 1.02871e-014
rhumerus -27.2691 27.7916 -91.9596
rradius 67.3703
rwrist -1.14863
rhand -13.4247 -23.9415
rfingers 7.12502
rthumb 12.6838 -53.5364
lclavicle -4.30515e-014 1.02871e-014
lhumerus -40.259 -19.3381 89.6224
lradius 43.7681
lwrist -4.54962
lhand -14.077 -22.2435
lfingers 7.12502
lthumb 12.0549 7.38931
rfemur 8.74182 0.167243 13.7272
rtibia 8.96444
rfoot -11.3728 1.1667
rtoes 15.736
lfemur 11.1541 3.63765 -20.5049
ltibia 5.82031
lfoot -10.372 9.86276
ltoes 3.90024
250
root 48.9989 17.2956 -2.07205 229.154 95.1101 237.85
lowerback 8.83663 2.72188 -5.39973
upperback 2.19072 3.17862 -0.79384
thorax -2.91545 1.64336 1.8421
lowerneck -25.074 0.00800138 0.846263
upperneck 19.6995 -0.704038 1.69374
head 10.4482 -0.0233302 0.36177
rclavicle 6.70859e-015 -2.48481e-015
rhumerus -28.3096 27.4996 -92.5442
rradius 66.471
rwrist -1.16267
rhand -13.4657 -24.305
rfingers 7.12502
rthumb 12.6443 -53.9023
lclavicle 6.70859e-015 -2.48481e-015
lhumerus -39.9331 -19.3342 89.4969
lradius 43.9763
lwrist -4.78856
lhand -14.1354 -22.4036
lfingers 7.12502
lthumb 11.9986 7.23243
rfemur 9.03961 -0.106203 12.8852
rtibia 8.6915
rfoot -11.3977 1.24961
rtoes 15.9074
lfemur 11.4679 3.70465 -21.2382
ltibia 5.34041
lfoot -10.1837 9.58363
ltoes 3.30976
251
root 48.9955 17.292 -2.07051 220.933 94.7465 229.425
lowerback 8.81343 2.786 -4.79086
upperback 2.14116 3.31904 -0.596144
thorax -2.94361 1.70868 1.69031
lowerneck -25.0399 -0.0658342 0.571188
upperneck 19.6385 -0.763762 1.93593
head 10.4225 -0.0417353 0.484041
rclavicle 2.1018e-014 -1.73937e-014
rhumerus -28.8655 27.373 -92.8943
rradius 65.4257
rwrist -1.27915
rhand -13.8781 -24.6691
rfingers 7.12502
rthumb 12.2466 -54.2905
lclavicle 2.1018e-014 -1.73937e-014
lhumerus -39.1368 -19.3287 89.2931
lradius 44.1323
lwrist -5.03344
lhand -14.2101 -22.3013
lfingers 7.12502
lthumb 11.9265 7.33895
rfemur 8.65464 0.395625 14.0017
rtibia 8.87375
rfoot -11.4757 0.943893
rtoes 16.1342
lfemur 11.5434 3.81668 -20.2231
ltibia 4.85294
lfoot -10.0624 9.55949
ltoes 3.9014
252
root 48.9993 17.2897 -2.08028 218.568 94.4561 226.886
lowerback 8.4976 2.74015 -4.41242
upperback 2.2889 3.317 -0.536757
thorax -2.59812 1.69826 1.56097
lowerneck -25.2601 -0.121004 0.522711
upperneck 19.7542 -0.777172 1.73216
head 10.5026 -0.0765689 0.417096
rclavicle -3.28608e-014 8.49804e-015
rhumerus -29.1345 27.0465 -93.0695
rradius 64.3077
rwrist -0.964048
rhand -14.0827 -25.1046
rfingers 7.12502
rthumb 12.0494 -54.7377
lclavicle -3.28608e-014 8.49804e-015
lhumerus -38.0886 -19.402 89.0722
lradius 44.2264
lwrist -5.23758
lhand -14.6374 -22.2984
lfingers 7.12502
lthumb 11.5145 7.36536
rfemur 8.39455 0.129392 14.3302
rtibia 9.10225
rfoot -11.525 1.16786
rtoes 15.7238
lfemur 11.6144 3.92934 -19.8476
ltibia 4.40474
lfoot -9.79543 9.33757
ltoes 2.84603
253
root 49.0037 17.2911 -2.08165 222.754 94.4343 230.918
lowerback 8.34267 2.71622 -4.68398
upperback 2.32096 3.27117 -0.636091
thorax -2.48478 1.67487 1.62317
lowerneck -25.2657 -0.2551 0.299415
upperneck 19.6799 -0.93022 1.93567
head 10.4798 -0.138441 0.502093
rclavicle 1.72046e-014 -2.78299e-015
rhumerus -29.584 26.4624 -93.2829
rradius 63.1811
rwrist -0.723663
rhand -13.8021 -25.2534
rfingers 7.12502
rthumb 12.32 -54.8705
lclavicle 1.72046e-014 -2.78299e-015
lhumerus -37.3107 -19.4853 88.9088
lradius 44.3885
lwrist -5.15282
lhand -15.1155 -22.4214
lfingers 7.12502
lthumb 11.0534 7.26758
rfemur 8.33225 0.26161 14.1741
rtibia 9.00478
rfoot -11.6987 0.775116
rtoes 13.9619
lfemur 11.5797 4.01407 -20.0538
ltibia 4.21372
lfoot -9.70378 8.99155
ltoes 2.84655
254
root 48.9914 17.2877 -2.07667 224.683 95.6699 232.122
lowerback 7.91666 3.03345 -6.00121
upperback 2.01174 3.59024 -0.894143
thorax -2.65075 1.84584 2.06397
lowerneck -25.1549 -0.279276 0.175065
upperneck 19.634 -0.965185 2.13654
head 10.4459 -0.138793 0.58892
rclavicle 4.97847e-014 -3.58806e-014
rhumerus -30.2277 25.9772 -93.5323
rradius 62.0537
rwrist -0.667533
rhand -13.1342 -25.1197
rfingers 7.12502
rthumb 12.9638 -54.697
lclavicle 4.97847e-014 -3.58806e-014
lhumerus -36.7582 -19.407 88.799
lradius 44.5663
lwrist -4.88839
lhand -15.3121 -22.4402
lfingers 7.12502
lthumb 10.8637 7.25877
rfemur 7.06476 0.14679 12.9232
rtibia 9.56931
rfoot -11.5908 1.49836
rtoes 12.3461
lfemur 10.9697 4.9376 -21.1997
ltibia 4.10894
lfoot -9.90453 8.75592
ltoes 4.67476
255
root 49.0057 17.3163 -2.09942 243.626 94.5754 251.594
lowerback 8.6709 2.348 -5.78183
upperback 2.10707 2.65169 -0.964103
thorax -2.87988 1.38459 1.94683
lowerneck -24.7688 -0.0683154 0.392934
upperneck 19.5782 -0.663544 1.80383
head 10.3507 -0.02898 0.4807
rclavicle -2.19459e-014 1.13307e-014
rhumerus -30.8922 25.4867 -93.812
rradius 60.9544
rwrist -0.419217
rhand -12.5163 -25.2441
rfingers 7.12502
rthumb 13.5594 -54.7826
lclavicle -2.19459e-014 1.13307e-014
lhumerus -36.2356 -19.2538 88.6529
lradius 44.7355
lwrist -4.72627
lhand -15.5694 -22.5216
lfingers 7.12502
lthumb 10.6155 7.19028
rfemur 8.42089 -0.80981 12.6361
rtibia 9.00535
rfoot -12.0234 0.628347
rtoes 11.9567
lfemur 11.3388 3.73652 -21.3908
ltibia 4.10547
lfoot -9.5233 8.05093
ltoes 4.48393
